<?xml version="1.0" encoding="UTF-8"?>
<svg version="1.1" xmlns="http://www.w3.org/2000/svg" width="473" height="268">
<path d="M0 0 C156.09 0 312.18 0 473 0 C473 88.44 473 176.88 473 268 C316.91 268 160.82 268 0 268 C0 179.56 0 91.12 0 0 Z " fill="#F9F1E3" transform="translate(0,0)"/>
<path d="M0 0 C20.50738676 16.12362634 34.66105975 38.28850239 39.04931641 64.19140625 C42.36836542 93.7548944 35.86360908 120.63363827 17.17431641 144.06640625 C10.38743453 152.12154383 3.39932094 158.36975512 -5.32568359 164.31640625 C-6.46263672 165.1053125 -6.46263672 165.1053125 -7.62255859 165.91015625 C-28.45799202 179.41726482 -55.96213622 184.08249912 -80.22509766 179.18481445 C-106.70049171 172.96598933 -129.01786378 157.77624024 -144.32568359 135.31640625 C-144.85162109 134.5584375 -145.37755859 133.80046875 -145.91943359 133.01953125 C-159.47946352 112.10246381 -164.1043709 84.69434677 -159.1940918 60.34448242 C-158.39221716 56.94693046 -157.42412564 53.62928739 -156.32568359 50.31640625 C-156.11137695 49.66881348 -155.89707031 49.0212207 -155.67626953 48.35400391 C-150.86437252 34.32805955 -143.10813616 22.40676914 -133.32568359 11.31640625 C-132.78685547 10.69378906 -132.24802734 10.07117188 -131.69287109 9.4296875 C-98.13781372 -26.73895475 -38.42564385 -29.23097517 0 0 Z " fill="#F59A20" transform="translate(301.32568359375,45.68359375)"/>
<path d="M0 0 C3.12578143 1.6720747 5.39281175 3.7856235 7 7 C9.16467461 7.62669199 11.35864524 8.15427374 13.5625 8.625 C15.35880859 9.01558594 15.35880859 9.01558594 17.19140625 9.4140625 C18.11824219 9.60742188 19.04507813 9.80078125 20 10 C20.495 12.475 20.495 12.475 21 15 C17.66315055 16.11228315 14.88652143 16.21434216 11.375 16.375 C5.38364062 16.75412129 0.56338065 17.79383181 -5 20 C-5.57549372 22.10913026 -5.57549372 22.10913026 -6 25 C-6.103125 25.63164063 -6.20625 26.26328125 -6.3125 26.9140625 C-7.26891505 37.87298496 1.48327273 46.9920308 8 55 C9.13439265 56.4300995 10.25985772 57.86733948 11.375 59.3125 C11.85710937 59.92738281 12.33921875 60.54226562 12.8359375 61.17578125 C18.3504712 69.81768473 14.71449816 84.67877264 13 94 C11.48412442 100.18092932 7.52161742 103.81058305 3 108 C1.32926996 109.66259337 -0.33709413 111.329581 -2 113 C-2.84820312 113.83660156 -3.69640625 114.67320312 -4.5703125 115.53515625 C-5.41335938 116.36917969 -6.25640625 117.20320313 -7.125 118.0625 C-7.97320312 118.89910156 -8.82140625 119.73570312 -9.6953125 120.59765625 C-15.75279006 126.91180659 -16.97301771 133.33968699 -17.25 142 C-17.22840733 145.18138229 -17.22840733 145.18138229 -15 148 C-12.23742088 148.89492 -9.46864946 149.45736982 -6.62890625 150.05859375 C-3.5844554 151.14880572 -2.64981772 152.27640262 -1 155 C-2.98 155 -4.96 155 -7 155 C-6.67 156.32 -6.34 157.64 -6 159 C-10.5745071 158.46182269 -13.21429118 156.52380588 -17 154 C-19.63523708 152.86584733 -22.28442096 151.93640657 -25 151 C-24.69255859 150.12601562 -24.69255859 150.12601562 -24.37890625 149.234375 C-22.16422429 142.49496004 -21.35231122 136.07052165 -21 129 C-23.832168 128.66551741 -23.832168 128.66551741 -27 129 C-27.61359375 129.65484375 -28.2271875 130.3096875 -28.859375 130.984375 C-31.54448941 133.51269441 -33.44024629 133.41699552 -37.0390625 133.3515625 C-38.13347656 133.30128906 -38.13347656 133.30128906 -39.25 133.25 C-39.99507812 133.23195312 -40.74015625 133.21390625 -41.5078125 133.1953125 C-43.33909701 133.14835649 -45.16971649 133.07661652 -47 133 C-47.06058594 133.66386719 -47.12117188 134.32773438 -47.18359375 135.01171875 C-47.26738281 135.89472656 -47.35117188 136.77773437 -47.4375 137.6875 C-47.51871094 138.55761719 -47.59992188 139.42773438 -47.68359375 140.32421875 C-47.9908822 142.92289271 -48.45162384 145.44244733 -49 148 C-47.33710938 148.27263672 -47.33710938 148.27263672 -45.640625 148.55078125 C-44.17698223 148.80410404 -42.71344596 149.0580427 -41.25 149.3125 C-40.52039063 149.43044922 -39.79078125 149.54839844 -39.0390625 149.66992188 C-34.96890105 150.3914505 -32.11191066 151.07644183 -29 154 C-29.99 154.33 -30.98 154.66 -32 155 C-32 155.99 -32 156.98 -32 158 C-36.75 157.125 -36.75 157.125 -39 156 C-39 156.66 -39 157.32 -39 158 C-42.58401694 158.4717536 -43.84750871 158.10371877 -46.89453125 156.03125 C-47.85746094 155.1959375 -48.82039063 154.360625 -49.8125 153.5 C-50.78832031 152.6646875 -51.76414063 151.829375 -52.76953125 150.96875 C-53.50558594 150.3190625 -54.24164063 149.669375 -55 149 C-54.38138591 144.9519816 -53.54321095 141.06709989 -52.4375 137.125 C-52.16808594 136.15820312 -51.89867187 135.19140625 -51.62109375 134.1953125 C-51.41613281 133.47085938 -51.21117187 132.74640625 -51 132 C-52.5778125 131.62875 -52.5778125 131.62875 -54.1875 131.25 C-57.94331371 130.36627913 -60.25036614 128.70771871 -63 126 C-64.8547055 122.90116462 -66.33577652 119.66752821 -67.8125 116.375 C-68.21919922 115.50359375 -68.62589844 114.6321875 -69.04492188 113.734375 C-72 107.31763393 -72 107.31763393 -72 105 C-79.26 104.01 -86.52 103.02 -94 102 C-93.67 100.68 -93.34 99.36 -93 98 C-93.66 97.34 -94.32 96.68 -95 96 C-95 95.01 -95 94.02 -95 93 C-93.91332031 92.94392578 -93.91332031 92.94392578 -92.8046875 92.88671875 C-91.83789062 92.82097656 -90.87109375 92.75523437 -89.875 92.6875 C-88.92367187 92.62949219 -87.97234375 92.57148438 -86.9921875 92.51171875 C-83.54606049 91.92236805 -81.09339155 90.60664522 -78 89 C-75.92863811 88.3559852 -73.84433476 87.75235137 -71.75 87.1875 C-67.45174308 85.91932059 -63.97268512 84.54853972 -60.25 82.0625 C-55.21491411 78.7933904 -50.05778356 77.38919746 -44.32714844 75.82885742 C-39.08877492 74.3842904 -34.31450236 72.51466377 -29.4296875 70.109375 C-27.0154348 69.0070474 -24.6835012 68.31285934 -22.125 67.625 C-18.09706922 66.32823811 -15.93160976 64.57351626 -13.75 60.9375 C-11.54755236 55.24784359 -14.30079125 50.05973492 -16.5 44.8125 C-17.16515625 43.33716797 -17.16515625 43.33716797 -17.84375 41.83203125 C-21.65099222 32.50686027 -21.85279694 18.10462308 -17.9921875 8.765625 C-13.58192753 0.91744584 -8.87090293 -1.24980562 0 0 Z " fill="#030200" transform="translate(265,46)"/>
<path d="M0 0 C20.50738676 16.12362634 34.66105975 38.28850239 39.04931641 64.19140625 C42.36836542 93.7548944 35.86360908 120.63363827 17.17431641 144.06640625 C10.38743453 152.12154383 3.39932094 158.36975512 -5.32568359 164.31640625 C-6.46263672 165.1053125 -6.46263672 165.1053125 -7.62255859 165.91015625 C-28.45799202 179.41726482 -55.96213622 184.08249912 -80.22509766 179.18481445 C-106.70049171 172.96598933 -129.01786378 157.77624024 -144.32568359 135.31640625 C-144.85162109 134.5584375 -145.37755859 133.80046875 -145.91943359 133.01953125 C-159.47946352 112.10246381 -164.1043709 84.69434677 -159.1940918 60.34448242 C-158.39221716 56.94693046 -157.42412564 53.62928739 -156.32568359 50.31640625 C-156.11137695 49.66881348 -155.89707031 49.0212207 -155.67626953 48.35400391 C-150.86437252 34.32805955 -143.10813616 22.40676914 -133.32568359 11.31640625 C-132.78685547 10.69378906 -132.24802734 10.07117188 -131.69287109 9.4296875 C-98.13781372 -26.73895475 -38.42564385 -29.23097517 0 0 Z M-133.32568359 20.31640625 C-149.90197 40.63682306 -156.36172769 65.52361778 -154.14697266 91.40478516 C-151.49491225 116.59935898 -137.73241461 138.19909834 -118.75146484 154.44921875 C-96.86877754 171.29289754 -71.82242186 177.13062352 -44.76953125 173.6418457 C-20.65545757 169.84858866 0.89723184 155.46155984 15.67431641 136.31640625 C30.68608057 115.1199114 37.24235605 89.58262097 33.01806641 63.765625 C28.12452367 38.90980276 13.45224604 16.81799848 -7.24755859 2.26171875 C-49.1603824 -24.82827712 -100.29256213 -16.18211881 -133.32568359 20.31640625 Z " fill="#CC643D" transform="translate(301.32568359375,45.68359375)"/>
<path d="M0 0 C18.93417423 15.4558963 34.28609686 37.16169738 37 62 C37.93028567 78.35209641 37.83714786 93.92900949 32.25 109.4375 C31.98614502 110.17121826 31.72229004 110.90493652 31.45043945 111.66088867 C22.48386629 135.9119384 4.35468996 154.28943993 -18.70410156 165.38989258 C-40.26669396 175.22879985 -67.51781914 177.16079163 -90 169 C-91.05574219 168.62617188 -92.11148438 168.25234375 -93.19921875 167.8671875 C-117.00606119 158.66146866 -136.3869956 140.93963289 -147.03393555 117.75024414 C-157.15497328 94.64496237 -159.33515719 66.72844398 -150.18652344 42.87939453 C-140.04589017 17.7187203 -121.49337798 -1.59767495 -96.7355957 -12.72412109 C-65.10632081 -26.04298893 -27.06632114 -20.88426243 0 0 Z M-132 17 C-148.57628641 37.32041681 -155.03604409 62.20721153 -152.82128906 88.08837891 C-150.16922866 113.28295273 -136.40673102 134.88269209 -117.42578125 151.1328125 C-95.54309395 167.97649129 -70.49673826 173.81421727 -43.44384766 170.32543945 C-19.32977397 166.53218241 2.22291544 152.14515359 17 133 C32.01176416 111.80350515 38.56803964 86.26621472 34.34375 60.44921875 C29.45020726 35.59339651 14.77792963 13.50159223 -5.921875 -1.0546875 C-47.8346988 -28.14468337 -98.96687854 -19.49852506 -132 17 Z " fill="#99CBE1" transform="translate(300,49)"/>
<path d="M0 0 C3.20613573 1.89993229 5.39902918 3.33474007 6.69921875 6.9375 C7.31497271 10.43339345 7.20710911 12.50947841 5.8125 15.8125 C2.89278279 19.33629663 1.29819427 20.77955192 -3.3125 21.5625 C-7.57848687 20.91175624 -9.59111012 19.78864404 -12.66796875 16.84375 C-14.59117368 14.18171855 -14.85568017 12.19694281 -14.5703125 8.96484375 C-13.54936167 5.44745836 -11.60557679 3.54353925 -9 1 C-5.85088521 -0.57455739 -3.47991184 -0.34799118 0 0 Z " fill="#F2ECDD" transform="translate(223,242)"/>
<path d="M0 0 C4.42610196 0.36279524 6.39743509 1.54792364 9.8125 4.3125 C11.40811887 7.50373774 11.1924142 10.83995091 10.8125 14.3125 C9.17562815 17.89802881 8.12277417 19.10565055 4.8125 21.3125 C-2.13427871 21.98476891 -2.13427871 21.98476891 -6.125 19.4375 C-9.50980986 15.95012014 -9.57349822 13.27663062 -9.55078125 8.57421875 C-8.9793883 5.01683683 -6.9362971 3.45790262 -4.1875 1.3125 C-3.1875 0.3125 -3.1875 0.3125 0 0 Z " fill="#EEEBDD" transform="translate(401.1875,241.6875)"/>
<path d="M0 0 C4.42610196 0.36279524 6.39743509 1.54792364 9.8125 4.3125 C11.40811887 7.50373774 11.1924142 10.83995091 10.8125 14.3125 C9.17562815 17.89802881 8.12277417 19.10565055 4.8125 21.3125 C-2.13427871 21.98476891 -2.13427871 21.98476891 -6.125 19.4375 C-9.50980986 15.95012014 -9.57349822 13.27663062 -9.55078125 8.57421875 C-8.9793883 5.01683683 -6.9362971 3.45790262 -4.1875 1.3125 C-3.1875 0.3125 -3.1875 0.3125 0 0 Z " fill="#EEEBDD" transform="translate(242.1875,241.6875)"/>
<path d="M0 0 C2.24940295 -0.08119503 4.49964871 -0.13927819 6.75 -0.1875 C8.00296875 -0.22230469 9.2559375 -0.25710937 10.546875 -0.29296875 C14.15230466 0.01292178 15.53260811 0.40985229 18 3 C18.375 5.5625 18.375 5.5625 18 8 C17.34 8.66 16.68 9.32 16 10 C16.495 10.391875 16.99 10.78375 17.5 11.1875 C19 13 19 13 19.4375 15.5 C19 18 19 18 17.45703125 19.64453125 C14.08156172 21.50667422 10.99341701 21.32548985 7.25 21.1875 C6.55261719 21.17396484 5.85523437 21.16042969 5.13671875 21.14648438 C3.42414459 21.1112945 1.71197059 21.05749155 0 21 C0.66 20.34 1.32 19.68 2 19 C2.36831081 17.06742145 2.36831081 17.06742145 2.4140625 14.8671875 C2.45273438 14.06152344 2.49140625 13.25585938 2.53125 12.42578125 C2.5621875 11.58402344 2.593125 10.74226562 2.625 9.875 C2.66367188 9.02550781 2.70234375 8.17601562 2.7421875 7.30078125 C2.83656494 5.20088316 2.91937586 3.10047109 3 1 C2.01 0.67 1.02 0.34 0 0 Z " fill="#321D14" transform="translate(69,242)"/>
<path d="M0 0 C2.24940295 -0.08119503 4.49964871 -0.13927819 6.75 -0.1875 C8.00296875 -0.22230469 9.2559375 -0.25710937 10.546875 -0.29296875 C14.15141552 0.01284634 15.55647173 0.37931593 18 3 C18.25 6 18.25 6 18 9 C18 9.99 18 10.98 18 12 C18.33 12.33 18.66 12.66 19 13 C19.3125 15.375 19.3125 15.375 19 18 C16.48721232 20.70460353 15.05403171 20.99568896 11.328125 21.29296875 C9.96843965 21.27316751 8.6089066 21.23759202 7.25 21.1875 C6.55261719 21.17396484 5.85523438 21.16042969 5.13671875 21.14648438 C3.42414459 21.1112945 1.71197059 21.05749155 0 21 C0.99 20.34 1.98 19.68 3 19 C3.30279086 16.07895874 3.41810841 13.41700216 3.375 10.5 C3.38660156 9.71496094 3.39820313 8.92992187 3.41015625 8.12109375 C3.43425853 5.57724032 3.43425853 5.57724032 3 2 C2.01 1.34 1.02 0.68 0 0 Z " fill="#070401" transform="translate(300,242)"/>
<path d="M0 0 C-4.01550998 6.4199339 -8.13780436 12.72971964 -12.51953125 18.90625 C-13.70678946 20.58532757 -14.85930068 22.28895102 -16 24 C-19.83957124 17.76069673 -19.46930378 12.62034344 -18.5625 5.625 C-16.45097265 2.07763405 -14.35020271 1.53384872 -10.46484375 0.45703125 C-6.88929495 -0.2059469 -3.62835914 -0.1979105 0 0 Z " fill="#F0901D" transform="translate(277,62)"/>
<path d="M0 0 C1.91595968 -0.08133791 3.83291932 -0.13934367 5.75 -0.1875 C7.35101563 -0.23970703 7.35101563 -0.23970703 8.984375 -0.29296875 C12.329252 0.03198692 13.65544882 0.63301292 16 3 C16.375 5.5625 16.375 5.5625 16 8 C15.34 8.66 14.68 9.32 14 10 C13.01 10 12.02 10 11 10 C12.0984742 11.46262592 13.2040036 12.91995503 14.3125 14.375 C14.92738281 15.18710937 15.54226563 15.99921875 16.17578125 16.8359375 C17.99480683 19.19779389 17.99480683 19.19779389 21 21 C18.4375 21.5625 18.4375 21.5625 15 21 C12.91623718 18.82563879 11.23317186 16.53828112 9.515625 14.06640625 C8.16160384 11.89049701 8.16160384 11.89049701 6 11 C6 13.97 6 16.94 6 20 C6.99 20.33 7.98 20.66 9 21 C6.03 21 3.06 21 0 21 C0.66 20.34 1.32 19.68 2 19 C2.19856972 16.12657939 2.27828946 13.37138012 2.25 10.5 C2.25773437 9.71496094 2.26546875 8.92992187 2.2734375 8.12109375 C2.44419897 3.58467749 2.44419897 3.58467749 0 0 Z " fill="#23100B" transform="translate(370,242)"/>
<path d="M0 0 C2.64 0 5.28 0 8 0 C7.01 0.495 7.01 0.495 6 1 C6.33 3.31 6.66 5.62 7 8 C9.58119071 6.26877535 9.58119071 6.26877535 12 4 C12 2.68 12 1.36 12 0 C14.64 0 17.28 0 20 0 C18.9171875 0.804375 18.9171875 0.804375 17.8125 1.625 C14.752158 4.2092888 12.48779989 6.87248014 10 10 C11.24676853 11.27400377 12.4975648 12.54406654 13.75 13.8125 C14.44609375 14.52019531 15.1421875 15.22789062 15.859375 15.95703125 C18.20830579 18.27943879 18.20830579 18.27943879 22 21 C18.7 21 15.4 21 12 21 C12.66 20.67 13.32 20.34 14 20 C11.69 17.36 9.38 14.72 7 12 C6.67 14.64 6.34 17.28 6 20 C6.66 20.33 7.32 20.66 8 21 C5.36 21 2.72 21 0 21 C0.66 20.34 1.32 19.68 2 19 C2.19856972 16.12657939 2.27828946 13.37138012 2.25 10.5 C2.25773438 9.71496094 2.26546875 8.92992187 2.2734375 8.12109375 C2.44419897 3.58467749 2.44419897 3.58467749 0 0 Z " fill="#222B38" transform="translate(155,242)"/>
<path d="M0 0 C2.43237153 3.6485573 3.68031191 7.32117579 5.125 11.4375 C5.40214844 12.20126953 5.67929688 12.96503906 5.96484375 13.75195312 C6.22652344 14.49251953 6.48820312 15.23308594 6.7578125 15.99609375 C7.11576904 17.00434204 7.11576904 17.00434204 7.48095703 18.03295898 C8 20 8 20 8 24 C0.55028003 23.51149377 0.55028003 23.51149377 -1.7734375 21.3515625 C-3.41416279 18.20596816 -3.1602747 16.13547871 -2.8125 12.625 C-2.71582031 11.52414063 -2.61914062 10.42328125 -2.51953125 9.2890625 C-2.00237487 6.01503488 -1.14031313 3.10653207 0 0 Z " fill="#ED8F1D" transform="translate(250,172)"/>
<path d="M0 0 C0.66 0 1.32 0 2 0 C2.23187012 0.52956299 2.46374023 1.05912598 2.70263672 1.60473633 C3.75715416 4.00862504 4.81602611 6.41057134 5.875 8.8125 C6.23980469 9.64587891 6.60460937 10.47925781 6.98046875 11.33789062 C7.33496094 12.14033203 7.68945312 12.94277344 8.0546875 13.76953125 C8.37937012 14.50792236 8.70405273 15.24631348 9.03857422 16.00708008 C10.05653856 18.23438861 10.05653856 18.23438861 12 21 C9.36 21 6.72 21 4 21 C4.66 20.67 5.32 20.34 6 20 C5.34 18.35 4.68 16.7 4 15 C1.36 15 -1.28 15 -4 15 C-4.99 17.475 -4.99 17.475 -6 20 C-5.34 20.33 -4.68 20.66 -4 21 C-5.98 21 -7.96 21 -10 21 C-9.44570312 19.90300781 -8.89140625 18.80601562 -8.3203125 17.67578125 C-7.58843442 16.22140813 -6.85666955 14.76697804 -6.125 13.3125 C-5.76019531 12.59126953 -5.39539063 11.87003906 -5.01953125 11.12695312 C-3.1820758 7.46874636 -1.43861498 3.8388305 0 0 Z " fill="#3E2825" transform="translate(120,242)"/>
<path d="M0 0 C0.66 0 1.32 0 2 0 C4.30970414 4.49596578 6.60628431 8.99829806 8.89086914 13.50708008 C9.67015667 15.0404854 10.453022 16.57207784 11.23950195 18.10180664 C12.36831383 20.29889474 13.48416688 22.5021465 14.59765625 24.70703125 C14.952798 25.39150833 15.30793976 26.07598541 15.67384338 26.78120422 C16.52599931 28.48451167 17.27233997 30.2399043 18 32 C17.67 32.99 17.34 33.98 17 35 C12.72188281 29.00543458 8.63480953 22.92734455 4.7109375 16.6953125 C2.2076874 12.75183631 -0.38935718 8.87293166 -3 5 C-1.125 1.125 -1.125 1.125 0 0 Z " fill="#F7B323" transform="translate(262,159)"/>
<path d="M0 0 C7.78792875 1.51593907 15.09140938 3.9789026 22.5625 6.625 C24.36170898 7.25535156 24.36170898 7.25535156 26.19726562 7.8984375 C29.13314177 8.92774866 32.06729381 9.96169884 35 11 C35 11.66 35 12.32 35 13 C27.04990564 11.89743217 19.18324595 10.50146784 11.3125 8.9375 C10.42723633 8.7631543 9.54197266 8.58880859 8.62988281 8.40917969 C7.38416504 8.1582959 7.38416504 8.1582959 6.11328125 7.90234375 C5.36860596 7.75273193 4.62393066 7.60312012 3.85668945 7.44897461 C2 7 2 7 0 6 C0 4.02 0 2.04 0 0 Z " fill="#F7B524" transform="translate(278,133)"/>
<path d="M0 0 C3.20613573 1.89993229 5.39902918 3.33474007 6.69921875 6.9375 C7.31497271 10.43339345 7.20710911 12.50947841 5.8125 15.8125 C2.89278279 19.33629663 1.29819427 20.77955192 -3.3125 21.5625 C-7.57848687 20.91175624 -9.59111012 19.78864404 -12.66796875 16.84375 C-14.59117368 14.18171855 -14.85568017 12.19694281 -14.5703125 8.96484375 C-13.54936167 5.44745836 -11.60557679 3.54353925 -9 1 C-5.85088521 -0.57455739 -3.47991184 -0.34799118 0 0 Z M-7.6875 2.3125 C-10.8478945 5.98539091 -10.65405068 8.69789714 -10.4140625 13.421875 C-10.13139779 16.142097 -10.13139779 16.142097 -8.4375 18.75 C-4.92821869 20.54963144 -2.73588519 20.03774589 1 19 C3.95634895 14.56547658 3.77848043 10.20024929 3 5 C0.89334445 2.19396024 0.89334445 2.19396024 -2 1 C-5.04919483 0.78058235 -5.04919483 0.78058235 -7.6875 2.3125 Z " fill="#342824" transform="translate(223,242)"/>
<path d="M0 0 C-1.24360372 3.73081117 -2.3100873 4.07257453 -5.625 6.0625 C-11.21242138 9.4839696 -16.64460857 13.09290215 -22.04736328 16.79907227 C-26.78143551 20 -26.78143551 20 -29 20 C-29.66 18.35 -30.32 16.7 -31 15 C-12.7495812 5.34644463 -12.7495812 5.34644463 -5.9375 1.875 C-5.20402344 1.50117187 -4.47054688 1.12734375 -3.71484375 0.7421875 C-2 0 -2 0 0 0 Z " fill="#F5B123" transform="translate(306,88)"/>
<path d="M0 0 C4.42610196 0.36279524 6.39743509 1.54792364 9.8125 4.3125 C11.40811887 7.50373774 11.1924142 10.83995091 10.8125 14.3125 C9.17562815 17.89802881 8.12277417 19.10565055 4.8125 21.3125 C-2.13427871 21.98476891 -2.13427871 21.98476891 -6.125 19.4375 C-9.50980986 15.95012014 -9.57349822 13.27663062 -9.55078125 8.57421875 C-8.9793883 5.01683683 -6.9362971 3.45790262 -4.1875 1.3125 C-3.1875 0.3125 -3.1875 0.3125 0 0 Z M-3.9375 2.6875 C-6.90228705 6.14641822 -6.85145582 8.4451544 -6.6015625 12.890625 C-5.99387674 16.44501339 -5.09004466 18.15419756 -2.1875 20.3125 C1.80688174 20.24363135 3.9439229 20.1810771 6.8125 17.3125 C7.20918485 14.55443392 7.20918485 14.55443392 7.1875 11.4375 C7.21585937 10.38820312 7.24421875 9.33890625 7.2734375 8.2578125 C7.03260673 5.22198119 7.03260673 5.22198119 5.0390625 2.9296875 C1.72990768 0.5261961 -0.3763207 0.90691035 -3.9375 2.6875 Z " fill="#22191F" transform="translate(401.1875,241.6875)"/>
<path d="M0 0 C4.42610196 0.36279524 6.39743509 1.54792364 9.8125 4.3125 C11.40811887 7.50373774 11.1924142 10.83995091 10.8125 14.3125 C9.17562815 17.89802881 8.12277417 19.10565055 4.8125 21.3125 C-2.13427871 21.98476891 -2.13427871 21.98476891 -6.125 19.4375 C-9.50980986 15.95012014 -9.57349822 13.27663062 -9.55078125 8.57421875 C-8.9793883 5.01683683 -6.9362971 3.45790262 -4.1875 1.3125 C-3.1875 0.3125 -3.1875 0.3125 0 0 Z M-3.9375 2.6875 C-6.90228705 6.14641822 -6.85145582 8.4451544 -6.6015625 12.890625 C-5.99387674 16.44501339 -5.09004466 18.15419756 -2.1875 20.3125 C1.80688174 20.24363135 3.9439229 20.1810771 6.8125 17.3125 C7.20918485 14.55443392 7.20918485 14.55443392 7.1875 11.4375 C7.21585938 10.38820312 7.24421875 9.33890625 7.2734375 8.2578125 C7.03260673 5.22198119 7.03260673 5.22198119 5.0390625 2.9296875 C1.72990768 0.5261961 -0.3763207 0.90691035 -3.9375 2.6875 Z " fill="#22191F" transform="translate(242.1875,241.6875)"/>
<path d="M0 0 C1.08667969 0.01804688 2.17335937 0.03609375 3.29296875 0.0546875 C4.54013672 0.08949219 4.54013672 0.08949219 5.8125 0.125 C5.8125 2.105 5.8125 4.085 5.8125 6.125 C4.7915625 5.1040625 4.7915625 5.1040625 3.75 4.0625 C0.88531828 1.76654978 0.88531828 1.76654978 -2.875 2.25 C-6.2394999 2.84162071 -6.2394999 2.84162071 -8.1875 5.125 C-8.86954973 9.67728544 -9.01498213 13.78829809 -6.5625 17.75 C-3.59107459 19.47029892 -1.56659451 19.43219041 1.8125 19.125 C2.1425 16.485 2.4725 13.845 2.8125 11.125 C2.1525 10.795 1.4925 10.465 0.8125 10.125 C3.4525 10.125 6.0925 10.125 8.8125 10.125 C8.1525 10.785 7.4925 11.445 6.8125 12.125 C6.35438325 14.09735333 6.35438325 14.09735333 6.1875 16.25 C6.06375 17.52875 5.94 18.8075 5.8125 20.125 C1.04068329 21.71560557 -3.68945658 22.35809612 -8.33203125 20.06640625 C-11.00380438 18.05849528 -12.82747172 16.39003087 -13.7578125 13.12109375 C-13.96337616 9.51002538 -13.28772637 7.28397975 -11.375 4.25 C-7.48116493 0.46741736 -5.31634931 -0.11433009 0 0 Z " fill="#2C2220" transform="translate(199.1875,241.875)"/>
<path d="M0 0 C5.28 0 10.56 0 16 0 C16 1.65 16 3.3 16 5 C15.34 4.01 14.68 3.02 14 2 C12.03638136 1.42251197 12.03638136 1.42251197 9.875 1.3125 C8.59625 1.209375 7.3175 1.10625 6 1 C6 3.64 6 6.28 6 9 C8.31 9 10.62 9 13 9 C13.33 8.01 13.66 7.02 14 6 C14 8.64 14 11.28 14 14 C13.34 13.01 12.68 12.02 12 11 C8.93443402 10.26656572 8.93443402 10.26656572 6 10 C6 13.3 6 16.6 6 20 C12.60718405 19.56453143 12.60718405 19.56453143 18 16 C17.67 17.65 17.34 19.3 17 21 C11.39 21 5.78 21 0 21 C0.66 20.34 1.32 19.68 2 19 C2.19856972 16.12657939 2.27828946 13.37138012 2.25 10.5 C2.25773437 9.71496094 2.26546875 8.92992187 2.2734375 8.12109375 C2.44419897 3.58467749 2.44419897 3.58467749 0 0 Z " fill="#131B21" transform="translate(273,242)"/>
<path d="M0 0 C0 0.66 0 1.32 0 2 C-9.9 5.3 -19.8 8.6 -30 12 C-30 9.69 -30 7.38 -30 5 C-25.93910105 4.15873388 -21.87604526 3.32838113 -17.8125 2.5 C-16.66201172 2.26152344 -15.51152344 2.02304688 -14.32617188 1.77734375 C-13.21435547 1.55175781 -12.10253906 1.32617188 -10.95703125 1.09375 C-9.93585205 0.88427734 -8.91467285 0.67480469 -7.86254883 0.45898438 C-5.18075268 0.02898209 -2.70948135 -0.08705161 0 0 Z " fill="#F7B524" transform="translate(310,107)"/>
<path d="M0 0 C1 3 1 3 0.01196289 5.54370117 C-0.7499939 7.02833862 -0.7499939 7.02833862 -1.52734375 8.54296875 C-2.07197266 9.61611328 -2.61660156 10.68925781 -3.17773438 11.79492188 C-3.75845703 12.91447266 -4.33917969 14.03402344 -4.9375 15.1875 C-5.8027832 16.88422852 -5.8027832 16.88422852 -6.68554688 18.61523438 C-8.11487551 21.41482848 -9.55331136 24.20934805 -11 27 C-11.99 27 -12.98 27 -14 27 C-14.89453125 24.609375 -14.89453125 24.609375 -15 21 C-13.27086562 17.48513861 -10.99546736 14.40574309 -8.6875 11.25 C-8.07970703 10.38761719 -7.47191406 9.52523437 -6.84570312 8.63671875 C-2.46712854 2.46712854 -2.46712854 2.46712854 0 0 Z " fill="#F6B123" transform="translate(277,62)"/>
<path d="M0 0 C1.50433594 0.01353516 1.50433594 0.01353516 3.0390625 0.02734375 C3.80992187 0.03894531 4.58078125 0.05054688 5.375 0.0625 C5.375 2.3725 5.375 4.6825 5.375 7.0625 C4.694375 6.216875 4.01375 5.37125 3.3125 4.5 C0.53822485 1.670044 0.53822485 1.670044 -3.3125 2.0625 C-6.88039113 2.75633331 -6.88039113 2.75633331 -8.625 6.0625 C-9.15685462 11.40958142 -9.15685462 11.40958142 -7.4296875 16.30078125 C-5.74074596 18.28945336 -5.74074596 18.28945336 -3.14453125 18.453125 C-2.25121094 18.40671875 -1.35789063 18.3603125 -0.4375 18.3125 C0.91408203 18.25835937 0.91408203 18.25835937 2.29296875 18.203125 C2.98003906 18.15671875 3.66710937 18.1103125 4.375 18.0625 C1.95114944 20.9003623 1.50895972 21.04737552 -2.5 21.5 C-6.61956292 21.35585323 -8.72414268 20.05126209 -11.625 17.0625 C-13.36131636 13.58986727 -13.22690402 9.85056987 -12.625 6.0625 C-8.66798866 1.06416988 -6.18516403 -0.07192051 0 0 Z " fill="#14090A" transform="translate(146.625,241.9375)"/>
<path d="M0 0 C0.67806317 3.1851837 1.34035151 6.37345613 2 9.5625 C2.19078125 10.45775391 2.3815625 11.35300781 2.578125 12.27539062 C3.60729907 17.29261421 4.22479032 21.87899545 4 27 C3.34 27 2.68 27 2 27 C0.82347528 23.5866479 -0.33948174 20.16882405 -1.5 16.75 C-1.83386719 15.78191406 -2.16773438 14.81382812 -2.51171875 13.81640625 C-2.82753906 12.88183594 -3.14335937 11.94726562 -3.46875 10.984375 C-3.76201172 10.12553711 -4.05527344 9.26669922 -4.35742188 8.38183594 C-5 6 -5 6 -5 2 C-2 0 -2 0 0 0 Z " fill="#F7B023" transform="translate(256,169)"/>
<path d="M0 0 C0.90105469 0.02707031 1.80210937 0.05414063 2.73046875 0.08203125 C3.76107422 0.13423828 3.76107422 0.13423828 4.8125 0.1875 C4.8125 2.4975 4.8125 4.8075 4.8125 7.1875 C2.8125 6.1875 2.8125 6.1875 1.8125 3.1875 C-1.77077753 2.18532936 -1.77077753 2.18532936 -5.1875 3.1875 C-5.1875 4.1775 -5.1875 5.1675 -5.1875 6.1875 C-2.99342369 7.85470849 -2.99342369 7.85470849 -0.25 9.3125 C4.78337379 12.15837379 4.78337379 12.15837379 5.8125 13.1875 C6.125 15.5625 6.125 15.5625 5.8125 18.1875 C3.57511752 20.59061451 2.34909096 21.15091425 -0.9375 21.375 C-2.05125 21.2821875 -2.05125 21.2821875 -3.1875 21.1875 C-2.548125 20.94 -1.90875 20.6925 -1.25 20.4375 C1.00553909 19.38466567 1.00553909 19.38466567 1.44140625 17.109375 C1.62509766 16.15804688 1.62509766 16.15804688 1.8125 15.1875 C1.090625 14.74019531 0.36875 14.29289062 -0.375 13.83203125 C-1.303125 13.22746094 -2.23125 12.62289062 -3.1875 12 C-4.115625 11.40832031 -5.04375 10.81664062 -6 10.20703125 C-8.1875 8.1875 -8.1875 8.1875 -8.6875 5.63671875 C-8.1875 3.1875 -8.1875 3.1875 -7.01171875 1.38671875 C-4.56072601 -0.22453344 -2.90706041 -0.11326209 0 0 Z " fill="#201A1C" transform="translate(342.1875,241.8125)"/>
<path d="M0 0 C4.29 0 8.58 0 13 0 C13 0.33 13 0.66 13 1 C10.69 1 8.38 1 6 1 C5.86722656 1.91523438 5.73445312 2.83046875 5.59765625 3.7734375 C5.42105469 4.96195313 5.24445313 6.15046875 5.0625 7.375 C4.88847656 8.55835938 4.71445313 9.74171875 4.53515625 10.9609375 C4 14 4 14 3 16 C1.35 15.67 -0.3 15.34 -2 15 C-1.85737588 13.4372038 -1.71074489 11.87477304 -1.5625 10.3125 C-1.48128906 9.44238281 -1.40007812 8.57226562 -1.31640625 7.67578125 C-1.01156391 5.09779359 -0.50910741 2.54553705 0 0 Z " fill="#E88C1C" transform="translate(218,179)"/>
<path d="M0 0 C-3.75 2 -3.75 2 -6 2 C-5.33553381 4.90703957 -4.52484674 6.60609215 -2.12109375 8.41015625 C-0.68654205 9.29039101 0.76133525 10.14933443 2.22265625 10.984375 C4 12 4 12 5 13 C5.28719107 15.7283152 5.44576385 17.36512421 3.83984375 19.65234375 C1.2720115 21.53323998 -0.54365196 21.29845934 -3.6875 21.1875 C-5.17830078 21.14689453 -5.17830078 21.14689453 -6.69921875 21.10546875 C-7.45847656 21.07066406 -8.21773438 21.03585937 -9 21 C-9 18.69 -9 16.38 -9 14 C-7.948125 15.2684375 -7.948125 15.2684375 -6.875 16.5625 C-4.20542015 19.39309751 -4.20542015 19.39309751 -0.6875 18.8125 C0.199375 18.544375 1.08625 18.27625 2 18 C1.63438685 15.35633571 1.34956336 14.27811414 -0.77734375 12.5859375 C-1.49019531 12.18632812 -2.20304687 11.78671875 -2.9375 11.375 C-5.32419292 10.01488825 -7.04330487 8.95669513 -9 7 C-8.8125 4.5 -8.8125 4.5 -8 2 C-4.77208445 -0.1519437 -3.71599191 -0.20086443 0 0 Z " fill="#1C1415" transform="translate(265,242)"/>
<path d="M0 0 C5.61 0 11.22 0 17 0 C16.67 0.99 16.34 1.98 16 3 C13.03 2.505 13.03 2.505 10 2 C10 7.94 10 13.88 10 20 C10.99 20.33 11.98 20.66 13 21 C10.03 21 7.06 21 4 21 C4.66 20.34 5.32 19.68 6 19 C6.36831081 17.06742145 6.36831081 17.06742145 6.4140625 14.8671875 C6.47207031 13.65869141 6.47207031 13.65869141 6.53125 12.42578125 C6.5621875 11.58402344 6.593125 10.74226562 6.625 9.875 C6.66367187 9.02550781 6.70234375 8.17601562 6.7421875 7.30078125 C6.83656494 5.20088316 6.91937586 3.10047109 7 1 C4.69 1.66 2.38 2.32 0 3 C0 2.01 0 1.02 0 0 Z " fill="#161423" transform="translate(351,242)"/>
<path d="M0 0 C2.97 0 5.94 0 9 0 C8.01 0.33 7.02 0.66 6 1 C6 7.27 6 13.54 6 20 C11.65536766 18.93760529 11.65536766 18.93760529 17 17 C16.67 18.32 16.34 19.64 16 21 C10.72 21 5.44 21 0 21 C0.66 20.34 1.32 19.68 2 19 C2.19856972 16.12657939 2.27828946 13.37138012 2.25 10.5 C2.25773437 9.71496094 2.26546875 8.92992187 2.2734375 8.12109375 C2.44419897 3.58467749 2.44419897 3.58467749 0 0 Z " fill="#061621" transform="translate(91,242)"/>
<path d="M0 0 C2.475 0.495 2.475 0.495 5 1 C5.19818283 7.70518586 5.30844801 13.65176798 3 20 C2.34 20 1.68 20 1 20 C-0.05619003 15.71702469 -0.11702092 11.57014354 -0.0625 7.1875 C-0.05798828 6.49462891 -0.05347656 5.80175781 -0.04882812 5.08789062 C-0.03713156 3.39188932 -0.01919924 1.69593297 0 0 Z " fill="#E4A320" transform="translate(239,174)"/>
<path d="M0 0 C0.66 0 1.32 0 2 0 C3.12367294 3.37101881 3.12939944 5.94431536 3.1328125 9.49609375 C3.13410156 10.77677734 3.13539063 12.05746094 3.13671875 13.37695312 C3.13462402 14.043479 3.1325293 14.71000488 3.13037109 15.39672852 C3.1250285 17.42667142 3.13031905 19.45639217 3.13671875 21.48632812 C3.13542969 22.76830078 3.13414062 24.05027344 3.1328125 25.37109375 C3.13112061 27.1334436 3.13112061 27.1334436 3.12939453 28.93139648 C3.02164956 31.48657876 2.75266334 33.5727168 2 36 C1.34 36 0.68 36 0 36 C0 24.12 0 12.24 0 0 Z " fill="#94D0EC" transform="translate(334,108)"/>
<path d="M0 0 C5.41538462 -0.36923077 5.41538462 -0.36923077 8.375 1.5 C8.91125 1.995 9.4475 2.49 10 3 C9.625 5.4375 9.625 5.4375 9 8 C6.04335481 9.4783226 3.25770263 9.06032783 0 9 C0 6.03 0 3.06 0 0 Z " fill="#E0DDD2" transform="translate(306,253)"/>
<path d="M0 0 C2.97 0 5.94 0 9 0 C8.01 0.33 7.02 0.66 6 1 C6 7.27 6 13.54 6 20 C6.99 20.33 7.98 20.66 9 21 C6.03 21 3.06 21 0 21 C0.66 20.34 1.32 19.68 2 19 C2.19856972 16.12657939 2.27828946 13.37138012 2.25 10.5 C2.25773437 9.71496094 2.26546875 8.92992187 2.2734375 8.12109375 C2.44419897 3.58467749 2.44419897 3.58467749 0 0 Z " fill="#041831" transform="translate(322,242)"/>
<path d="M0 0 C5.625 -0.25 5.625 -0.25 9 2 C9.3125 4.5 9.3125 4.5 9 7 C7 9 7 9 3.375 9.125 C2.26125 9.08375 1.1475 9.0425 0 9 C0 6.03 0 3.06 0 0 Z " fill="#E9E7DB" transform="translate(75,253)"/>
<path d="M0 0 C5.625 -0.25 5.625 -0.25 9 2 C9.3125 4.5 9.3125 4.5 9 7 C7 9 7 9 3.375 9.125 C2.26125 9.08375 1.1475 9.0425 0 9 C0 6.03 0 3.06 0 0 Z " fill="#E0DED3" transform="translate(306,243)"/>
<path d="M0 0 C5.625 -0.25 5.625 -0.25 9 2 C9.375 4.5 9.375 4.5 9 7 C5.5647952 9.29013653 4.014669 9.17842973 0 9 C0 6.03 0 3.06 0 0 Z " fill="#E7E3D4" transform="translate(75,243)"/>
<path d="M0 0 C3.3 0 6.6 0 10 0 C10 0.33 10 0.66 10 1 C8.35 1 6.7 1 5 1 C5 3.97 5 6.94 5 10 C6.32 10.33 7.64 10.66 9 11 C8.01 11 7.02 11 6 11 C6 13.97 6 16.94 6 20 C6.99 20.33 7.98 20.66 9 21 C6.03 21 3.06 21 0 21 C0.66 20.34 1.32 19.68 2 19 C2.19856972 16.12657939 2.27828946 13.37138012 2.25 10.5 C2.25773437 9.71496094 2.26546875 8.92992187 2.2734375 8.12109375 C2.44419897 3.58467749 2.44419897 3.58467749 0 0 Z " fill="#081017" transform="translate(370,242)"/>
<path d="M0 0 C2.31 0.33 4.62 0.66 7 1 C7.125 3.875 7.125 3.875 7 7 C5 9 5 9 2.375 9.125 C1.59125 9.08375 0.8075 9.0425 0 9 C0 6.03 0 3.06 0 0 Z " fill="#D7D8D1" transform="translate(375,243)"/>
<path d="M0 0 C2.64 0 5.28 0 8 0 C7.34 0.66 6.68 1.32 6 2 C5.80143028 4.87342061 5.72171054 7.62861988 5.75 10.5 C5.74226562 11.28503906 5.73453125 12.07007813 5.7265625 12.87890625 C5.55580103 17.41532251 5.55580103 17.41532251 8 21 C5.36 21 2.72 21 0 21 C0.66 20.34 1.32 19.68 2 19 C2.19856972 16.12657939 2.27828946 13.37138012 2.25 10.5 C2.25773438 9.71496094 2.26546875 8.92992187 2.2734375 8.12109375 C2.44419897 3.58467749 2.44419897 3.58467749 0 0 Z " fill="#030102" transform="translate(155,242)"/>
<path d="M0 0 C1.65 0 3.3 0 5 0 C3.35 4.95 1.7 9.9 0 15 C-0.99 15 -1.98 15 -3 15 C-2.01 10.05 -1.02 5.1 0 0 Z " fill="#F7AA22" transform="translate(224,180)"/>
<path d="M0 0 C3.71279784 1.44386582 4.9486443 3.12236392 6.75 6.625 C7.17796875 7.44226563 7.6059375 8.25953125 8.046875 9.1015625 C8.51867187 10.04128906 8.51867187 10.04128906 9 11 C6.36 11 3.72 11 1 11 C1.66 10.67 2.32 10.34 3 10 C2.34 8.35 1.68 6.7 1 5 C-1.31 4.67 -3.62 4.34 -6 4 C-6 3.67 -6 3.34 -6 3 C-4.02 3 -2.04 3 0 3 C0 2.01 0 1.02 0 0 Z " fill="#1B1314" transform="translate(123,252)"/>
<path d="M0 0 C2.08450717 0.2831556 4.16758367 0.57685669 6.25 0.875 C7.99023438 1.11863281 7.99023438 1.11863281 9.765625 1.3671875 C12.58193313 1.91820431 14.55217557 2.55796482 17 4 C16.34 4 15.68 4 15 4 C15 4.66 15 5.32 15 6 C13.93072266 5.80083984 13.93072266 5.80083984 12.83984375 5.59765625 C7.56989045 4.62594212 2.3119095 3.7082546 -3 3 C-2.01 2.67 -1.02 2.34 0 2 C0 1.34 0 0.68 0 0 Z " fill="#9BC9DC" transform="translate(253,30)"/>
<path d="M0 0 C0.33 0 0.66 0 1 0 C1 2.97 1 5.94 1 9 C3.64 9 6.28 9 9 9 C9 9.33 9 9.66 9 10 C6.36 10 3.72 10 1 10 C1 12.97 1 15.94 1 19 C2.98 19 4.96 19 7 19 C7 19.33 7 19.66 7 20 C3.04 20 -0.92 20 -5 20 C-3.68 19.67 -2.36 19.34 -1 19 C-1.01160156 18.38253906 -1.02320312 17.76507813 -1.03515625 17.12890625 C-1.09699663 11.32474456 -0.74278956 5.75661912 0 0 Z " fill="#020014" transform="translate(74,243)"/>
<path d="M0 0 C0 2.31 0 4.62 0 7 C-0.680625 6.154375 -1.36125 5.30875 -2.0625 4.4375 C-4.82091081 1.63194867 -4.82091081 1.63194867 -8.5625 1.9375 C-13.50228998 3.46434417 -15.19741514 5.79612271 -18 10 C-17.82227527 6.09005601 -17.4321336 4.4321336 -14.625 1.625 C-9.67830053 -0.59248597 -5.33698834 -0.34187114 0 0 Z " fill="#3F292A" transform="translate(152,242)"/>
<path d="M0 0 C0.66 0.99 1.32 1.98 2 3 C-2.95 3.66 -7.9 4.32 -13 5 C-13 4.34 -13 3.68 -13 3 C-13.66 2.67 -14.32 2.34 -15 2 C-13.43883181 1.66048381 -11.87598662 1.32867456 -10.3125 1 C-9.44238281 0.814375 -8.57226562 0.62875 -7.67578125 0.4375 C-5.0034109 0.0005577 -2.69584926 -0.29392564 0 0 Z " fill="#9FC5D2" transform="translate(231,30)"/>
<path d="M0 0 C0.33 0.66 0.66 1.32 1 2 C1.66 2 2.32 2 3 2 C2.34 6.95 1.68 11.9 1 17 C-2 14 -2 14 -2.109375 11.66015625 C-1.99078125 10.80292969 -1.8721875 9.94570312 -1.75 9.0625 C-1.64171875 8.20785156 -1.5334375 7.35320312 -1.421875 6.47265625 C-1.04706083 4.27582874 -0.57889638 2.15089949 0 0 Z " fill="#A1C1CB" transform="translate(147,101)"/>
<path d="M0 0 C2.29104056 0.91641622 3.75057101 1.69118315 5.3125 3.625 C6.38666871 7.33576462 5.74444724 10.21572655 5 14 C4.01 14.495 4.01 14.495 3 15 C2.92652344 14.00419922 2.92652344 14.00419922 2.8515625 12.98828125 C2.28874188 6.2887764 2.28874188 6.2887764 0 0 Z " fill="#0A1323" transform="translate(224,244)"/>
<path d="M0 0 C2.64 0 5.28 0 8 0 C7.34 0.66 6.68 1.32 6 2 C5.54188325 3.97235333 5.54188325 3.97235333 5.375 6.125 C5.189375 8.043125 5.189375 8.043125 5 10 C4.01 10 3.02 10 2 10 C2 7.03 2 4.06 2 1 C1.34 0.67 0.68 0.34 0 0 Z " fill="#1E120B" transform="translate(200,252)"/>
<path d="M0 0 C0.33 0 0.66 0 1 0 C1.13277344 0.96421875 1.26554688 1.9284375 1.40234375 2.921875 C1.57894531 4.18515625 1.75554687 5.4484375 1.9375 6.75 C2.19853516 8.62945312 2.19853516 8.62945312 2.46484375 10.546875 C2.90967522 13.83494902 2.90967522 13.83494902 3.62890625 16.328125 C4 18 4 18 3 20 C2.34 20 1.68 20 1 20 C0.09761253 17.29283758 -0.11851302 15.76223232 -0.09765625 12.98828125 C-0.09443359 12.23095703 -0.09121094 11.47363281 -0.08789062 10.69335938 C-0.07951172 9.90767578 -0.07113281 9.12199219 -0.0625 8.3125 C-0.05798828 7.51521484 -0.05347656 6.71792969 -0.04882812 5.89648438 C-0.0370585 3.93095743 -0.01912348 1.96546915 0 0 Z " fill="#E78B1C" transform="translate(244,71)"/>
<path d="M0 0 C4.875 1.875 4.875 1.875 6 3 C6.04063832 4.66617115 6.042721 6.33388095 6 8 C4.02 8.99 4.02 8.99 2 10 C0.56911472 7.13822943 1.40008303 5.06624227 2 2 C1.34 2 0.68 2 0 2 C0 1.34 0 0.68 0 0 Z " fill="#272227" transform="translate(380,242)"/>
<path d="M0 0 C5.67177385 -0.45374191 8.5975268 0.34916857 13 4 C13 4.66 13 5.32 13 6 C12.34 6 11.68 6 11 6 C11 8.64 11 11.28 11 14 C10.67 14 10.34 14 10 14 C9.96261719 13.38511719 9.92523438 12.77023438 9.88671875 12.13671875 C9.78810547 10.92435547 9.78810547 10.92435547 9.6875 9.6875 C9.62949219 8.88699219 9.57148438 8.08648437 9.51171875 7.26171875 C8.90385404 4.57504952 8.24482376 3.57969079 6 2 C2.35458155 2.23477199 2.35458155 2.23477199 -1 3 C-0.67 2.01 -0.34 1.02 0 0 Z " fill="#503E33" transform="translate(398,242)"/>
<path d="M0 0 C5.67177385 -0.45374191 8.5975268 0.34916857 13 4 C13 4.66 13 5.32 13 6 C12.34 6 11.68 6 11 6 C11 8.64 11 11.28 11 14 C10.67 14 10.34 14 10 14 C9.96261719 13.38511719 9.92523438 12.77023438 9.88671875 12.13671875 C9.78810547 10.92435547 9.78810547 10.92435547 9.6875 9.6875 C9.62949219 8.88699219 9.57148438 8.08648437 9.51171875 7.26171875 C8.90385404 4.57504952 8.24482376 3.57969079 6 2 C2.35458155 2.23477199 2.35458155 2.23477199 -1 3 C-0.67 2.01 -0.34 1.02 0 0 Z " fill="#503E33" transform="translate(239,242)"/>
<path d="M0 0 C2.375 -0.125 2.375 -0.125 5 0 C7 2 7 2 7.375 4.4375 C7 7 7 7 5.125 8.8125 C3 10 3 10 1 10 C1 9.34 1 8.68 1 8 C1.66 7.67 2.32 7.34 3 7 C2.42547254 3.06924356 2.42547254 3.06924356 0 0 Z " fill="#1C1317" transform="translate(312,253)"/>
<path d="M0 0 C0.99 0 1.98 0 3 0 C3.25 7.625 3.25 7.625 1 11 C0.34 11 -0.32 11 -1 11 C-0.67 7.37 -0.34 3.74 0 0 Z " fill="#090C1C" transform="translate(409,248)"/>
<path d="M0 0 C0.99 0 1.98 0 3 0 C3.25 7.625 3.25 7.625 1 11 C0.34 11 -0.32 11 -1 11 C-0.67 7.37 -0.34 3.74 0 0 Z " fill="#090C1C" transform="translate(250,248)"/>
<path d="M0 0 C0.33 0 0.66 0 1 0 C1.02578125 1.12019531 1.0515625 2.24039063 1.078125 3.39453125 C1.13440635 4.86722646 1.19175368 6.3398812 1.25 7.8125 C1.26417969 8.55048828 1.27835937 9.28847656 1.29296875 10.04882812 C1.46509047 14.52437418 1.46509047 14.52437418 4.046875 18.01171875 C4.69140625 18.33785156 5.3359375 18.66398437 6 19 C3.03 19 0.06 19 -3 19 C-2.34 18.34 -1.68 17.68 -1 17 C-0.69324768 14.10032243 -0.48826629 11.28216822 -0.375 8.375 C-0.33632813 7.57320312 -0.29765625 6.77140625 -0.2578125 5.9453125 C-0.16346069 3.96392444 -0.08063785 1.98199355 0 0 Z " fill="#280406" transform="translate(325,244)"/>
<path d="M0 0 C1.07765625 0.03609375 2.1553125 0.0721875 3.265625 0.109375 C4.49539062 0.17898437 4.49539062 0.17898437 5.75 0.25 C5.75 2.23 5.75 4.21 5.75 6.25 C5.069375 5.569375 4.38875 4.88875 3.6875 4.1875 C0.83934409 1.89180682 0.83934409 1.89180682 -2.8125 2.4375 C-4.5140625 2.8396875 -4.5140625 2.8396875 -6.25 3.25 C-7.4565625 3.5284375 -7.4565625 3.5284375 -8.6875 3.8125 C-9.4609375 4.0290625 -9.4609375 4.0290625 -10.25 4.25 C-7.0246569 0.27312065 -5.05259733 -0.21967814 0 0 Z " fill="#3D353A" transform="translate(199.25,241.75)"/>
<path d="M0 0 C0.66 0 1.32 0 2 0 C3.4606285 2.64738916 4 3.89448334 4 7 C2.02 7 0.04 7 -2 7 C-1.125 2.25 -1.125 2.25 0 0 Z " fill="#E1E1D1" transform="translate(119,248)"/>
<path d="M0 0 C4.875 1.875 4.875 1.875 6 3 C6.04080783 4.99958364 6.04254356 7.00045254 6 9 C5.01 9.495 5.01 9.495 4 10 C2 8 2 8 1.875 5.375 C1.91625 4.59125 1.9575 3.8075 2 3 C1.34 2.67 0.68 2.34 0 2 C0 1.34 0 0.68 0 0 Z " fill="#231A1D" transform="translate(312,242)"/>
<path d="M0 0 C0.66 0 1.32 0 2 0 C2.69699552 1.45381897 3.38233866 2.91322953 4.0625 4.375 C4.63677734 5.59316406 4.63677734 5.59316406 5.22265625 6.8359375 C5.47917969 7.55007812 5.73570313 8.26421875 6 9 C5.67 9.66 5.34 10.32 5 11 C4.01 10.67 3.02 10.34 2 10 C0.47839986 6.3962102 0 3.94779314 0 0 Z " fill="#222331" transform="translate(120,242)"/>
<path d="M0 0 C1.485 0.99 1.485 0.99 3 2 C5.51584891 2.24150773 5.51584891 2.24150773 8.1875 2.125 C9.53908203 2.09792969 9.53908203 2.09792969 10.91796875 2.0703125 C11.94857422 2.03550781 11.94857422 2.03550781 13 2 C11.39538295 3.91145604 10.53479815 4.91104348 8.02734375 5.328125 C2.22222222 5.11111111 2.22222222 5.11111111 0 4 C0 2.68 0 1.36 0 0 Z " fill="#3E4045" transform="translate(138,258)"/>
<path d="M0 0 C4.75 0.75 4.75 0.75 7 3 C7.125 5.625 7.125 5.625 7 8 C6.01 8 5.02 8 4 8 C4 6.35 4 4.7 4 3 C2.68 2.34 1.36 1.68 0 1 C0 0.67 0 0.34 0 0 Z " fill="#191A2A" transform="translate(80,242)"/>
<path d="M0 0 C0.33 0 0.66 0 1 0 C1.33 3.3 1.66 6.6 2 10 C1.34 10 0.68 10 0 10 C-0.33 10.66 -0.66 11.32 -1 12 C-1.33 9.03 -1.66 6.06 -2 3 C-1.34 3 -0.68 3 0 3 C0 2.01 0 1.02 0 0 Z " fill="#9DC6D5" transform="translate(147,135)"/>
<path d="M0 0 C0.721875 0.825 1.44375 1.65 2.1875 2.5 C4.72917366 5.24407806 4.72917366 5.24407806 7.8125 5.3125 C8.8953125 5.1578125 8.8953125 5.1578125 10 5 C10.33 5.66 10.66 6.32 11 7 C7.37 7 3.74 7 0 7 C0 4.69 0 2.38 0 0 Z " fill="#574231" transform="translate(256,256)"/>
<path d="M0 0 C0.99 0 1.98 0 3 0 C4.6875 2.5 4.6875 2.5 6 5 C3.36 5 0.72 5 -2 5 C-1.34 4.67 -0.68 4.34 0 4 C0 2.68 0 1.36 0 0 Z " fill="#13111D" transform="translate(126,258)"/>
<path d="M0 0 C3.3 0 6.6 0 10 0 C10 2.31 10 4.62 10 7 C8 6 8 6 7 3 C3.48809191 1.77030122 3.48809191 1.77030122 0 1 C0 0.67 0 0.34 0 0 Z " fill="#434851" transform="translate(337,242)"/>
<path d="M0 0 C0.33 0.66 0.66 1.32 1 2 C1.66 2 2.32 2 3 2 C2.67 3.98 2.34 5.96 2 8 C1.01 8 0.02 8 -1 8 C-0.67 5.36 -0.34 2.72 0 0 Z " fill="#A0C4CF" transform="translate(333,142)"/>
<path d="M0 0 C0.33 0.66 0.66 1.32 1 2 C0.67 2.99 0.34 3.98 0 5 C-3.63 5 -7.26 5 -11 5 C-11 4.67 -11 4.34 -11 4 C-9.741875 3.896875 -8.48375 3.79375 -7.1875 3.6875 C-4.39500343 3.35141192 -3.25566879 3.19974124 -1 1.4375 C-0.67 0.963125 -0.34 0.48875 0 0 Z " fill="#2A2E38" transform="translate(290,258)"/>
<path d="M0 0 C1.1446875 1.175625 1.1446875 1.175625 2.3125 2.375 C4.90891805 5.07257717 4.90891805 5.07257717 8 7 C6.02 7 4.04 7 2 7 C1.34 4.69 0.68 2.38 0 0 Z " fill="#0A1528" transform="translate(383,256)"/>
<path d="M0 0 C0.33 0 0.66 0 1 0 C1 3.3 1 6.6 1 10 C0.01 9.01 -0.98 8.02 -2 7 C-1.56521739 1.56521739 -1.56521739 1.56521739 0 0 Z " fill="#9DC7D6" transform="translate(147,108)"/>
<path d="M0 0 C0 0.66 0 1.32 0 2 C-2.97 2.66 -5.94 3.32 -9 4 C-6.25137935 -0.12293098 -4.89482776 0 0 0 Z " fill="#94D2EF" transform="translate(218,33)"/>
<path d="M0 0 C2.97 0.495 2.97 0.495 6 1 C5.01 1.495 5.01 1.495 4 2 C4 2.66 4 3.32 4 4 C1.69 3.67 -0.62 3.34 -3 3 C-2.01 2.67 -1.02 2.34 0 2 C0 1.34 0 0.68 0 0 Z " fill="#A6BDC0" transform="translate(264,32)"/>
</svg>
